# xmcd CD database file
#
# Track frame offsets:
#	150
#	15600
#	30600
#	43737
#	60025
#	75737
#	91525
#	107225
#	122512
#	136600
#	151100
#	165950
#	181012
#	197050
#	212237
#	228125
#	241025
#	251325
#
# Disc length: 3555 seconds
#
# Revision: 0
# Processed by: cddbd v1.5PL3 Copyright (c) Steve Scherf et al.
# Submitted via: CDex 1.50beta9
#
DISCID=c30de112
DTITLE=グレン・ミラー - グレン・ミラー　ベスト18
DYEAR=1900
DGENRE=Jazz
TTITLE0=ムーンライト・セレナーデ
TTITLE1=真珠の首飾り
TTITLE2=茶色の小瓶
TTITLE3=イン・ザ・ムード
TTITLE4=チャタヌーガ・チューチュー
TTITLE5=タキシード・ジャンクション
TTITLE6=サンライズ・セレナーデ
TTITLE7=アメリカン・パトロール
TTITLE8=ジューク・ボックス・サタディ・ナイト
TTITLE9=ペンシルヴァニア 6-5000
TTITLE10=パーフィディア
TTITLE11=カラマズーの娘
TTITLE12=セントルイス・ブルース・マーチ
TTITLE13=ムーンライト・カクテル
TTITLE14=セレナーデ・イン・ブルー
TTITLE15=ジョンソン・ラグ
TTITLE16=ダニー・ボーイ
TTITLE17=スターダスト
EXTD=
EXTT0=
EXTT1=
EXTT2=
EXTT3=
EXTT4=
EXTT5=
EXTT6=
EXTT7=
EXTT8=
EXTT9=
EXTT10=
EXTT11=
EXTT12=
EXTT13=
EXTT14=
EXTT15=
EXTT16=
EXTT17=
PLAYORDER=
